<?xml version="1.0" encoding="UTF-8"?>
<svg xmlns="http://www.w3.org/2000/svg" viewBox="0 0 32 32">
  <g class="deployment-icon">
    <path d="M27 5H5c-1.1 0-2 .9-2 2v18c0 1.1.9 2 2 2h22c1.1 0 2-.9 2-2V7c0-1.1-.9-2-2-2" fill="none" stroke="#333333" stroke-width="2" stroke-linecap="round" stroke-linejoin="round"/>
    <path d="M3 11h26" stroke="#333333" stroke-width="2" stroke-linecap="round" stroke-linejoin="round"/>
    <path d="M7 9c-.3 0-.5-.1-.7-.3S6 8.3 6 8s.1-.5.3-.7l.1-.1c.1 0 .1-.1.2-.1.1-.1.1-.1.2-.1h.4c.1 0 .1 0 .2.1.1 0 .1.1.2.1l.1.1c.1.1.2.2.2.3.1.1.1.3.1.4s0 .3-.1.4c0 .1-.1.2-.2.3-.2.2-.4.3-.7.3m3 0c-.3 0-.5-.1-.7-.3S9 8.3 9 8c0-.1 0-.3.1-.4s.1-.2.2-.3.2-.2.3-.2c.4-.2.8-.1 1.1.2.1.1.2.2.2.3.1.1.1.3.1.4 0 .3-.1.5-.3.7s-.4.3-.7.3m3 0c-.1 0-.3 0-.4-.1s-.2-.1-.3-.2-.2-.2-.2-.3c-.1-.1-.1-.3-.1-.4s0-.3.1-.4.1-.2.2-.3c.4-.4 1-.4 1.4 0 .1.1.2.2.2.3.1.1.1.3.1.4s0 .3-.1.4-.1.2-.2.3c-.2.2-.4.3-.7.3" fill="#333333"/>
    <path d="M11 16l-3 3 3 3m10-6l3 3-3 3m-3-7l-4 8" fill="none" stroke="#333333" stroke-width="2" stroke-linecap="round" stroke-linejoin="round"/>
  </g>
</svg> 