<svg width="124" height="153" viewBox="0 0 124 153" fill="none" xmlns="http://www.w3.org/2000/svg">
    <!-- Location pin shape -->
    <path d="M122.653 76C113.153 106.5 63.1527 152.5 63.1527 152.5C63.1527 152.5 2.11701 106 0.152715 73C-2.34729 31 26.1527 2.5 63.1527 0C100.153 3 129.653 36 122.653 76Z" fill="#FF0000"/>
    
    <!-- White circle inside -->
    <ellipse cx="62.6527" cy="62.5" rx="45" ry="44.5" fill="white"/>
    
    <!-- Person silhouette (scaled down but same design) -->
    <path transform="translate(62.6527, 62.5) scale(0.9) translate(-62.6527, -62.5)" d="M62 30C53.7157 30 47 37.7157 47 46C47 54.2843 53.7157 62 62 62C70.2843 62 77 54.2843 77 46C77 37.7157 70.2843 30 62 30ZM41.5 82.5C41.5 82.5 35 82.5 35 89C35 95.5 41.5 110 62 110C82.5 110 89 95.5 89 89C89 82.5 82.5 82.5 82.5 82.5H41.5Z" fill="#333333"/>
</svg>