<svg width="1243" height="855" viewBox="0 0 1243 855" fill="none" xmlns="http://www.w3.org/2000/svg">
<path d="M97.5 155C93.3 134 87 118 87 118L77 99C77 99 65.5 85.1471 61 82.5C56.5 79.8529 46 74 32.5 69C19 64 0 64.5 0 64.5V33.5V0H19L40 3.5L74 13.5L100 27L116.5 40L130.5 54.5L149 88.5L157.5 111L164 147L166 394L170 412.5L175 428L185 443.5L198 457L212 468.5L229.5 476.5L249 481.5L271.5 484L295.5 481.5L312 476.5L324 468.5L338 453.5L349.5 434.5L357.5 414L364.5 386L368 356L373.5 323.5L386.5 291L401.5 262L421.5 242L443 226L469.5 213.5L488.5 208L514.5 203.5H541.5L569 205.5L592 213.5L614 224L639.5 242L657 264L668 278.5L674.5 294.5L682 311.5L687.5 333L691 357V685L694 701.5L701 722L713 743L730.5 762L753 773.5L776 781H1243V818V855L776 850.5L749 848L725.5 840L710 832L686.5 813.5L665.5 791L651 769L636.5 743L628.5 718.5L625 699V368.5L619 337.5L609 316L590.5 294.5L565.5 281L538.5 275H514.5L488.5 281L466 296L448.5 323.5L436 362L428 391L421.5 428L411.5 464.5L397 489.5L386.5 506L373.5 519.5L361 530.5L347 542.5L334 548.75L321 555L299 561L275.5 563.5H256.5L229.5 559L203.5 550.5L181 540L161 525.5L147.5 511L136.5 497L125 480L117 464.5L110.5 447.5L102.5 421L100 401C100 401 101.7 176 97.5 155Z" fill="black"/>
</svg>
